<?xml version="1.0" standalone="no"?>
<!DOCTYPE svg PUBLIC "-//W3C//DTD SVG 20010904//EN"
 "http://www.w3.org/TR/2001/REC-SVG-20010904/DTD/svg10.dtd">
<svg version="1.0" xmlns="http://www.w3.org/2000/svg"
 width="1392.000000pt" height="917.000000pt" viewBox="0 0 1392.000000 917.000000"
 preserveAspectRatio="xMidYMid meet">

<g transform="translate(0.000000,917.000000) scale(0.100000,-0.100000)"
fill="#000000" stroke="none">
<path d="M11715 9099 c-324 -31 -609 -124 -930 -304 -421 -236 -760 -523
-1289 -1095 -316 -341 -465 -486 -651 -636 -420 -337 -978 -615 -1672 -832
-103 -32 -204 -64 -223 -70 -27 -9 25 -11 230 -7 316 4 477 20 790 76 811 147
1491 485 1990 990 101 103 593 566 770 725 448 404 784 613 1149 714 165 46
293 62 491 63 194 0 316 -12 494 -49 65 -14 120 -23 123 -21 8 8 -138 128
-222 182 -237 154 -487 239 -780 264 -133 12 -142 12 -270 0z"/>
<path d="M3285 7315 c-353 -42 -658 -131 -993 -291 -279 -133 -532 -189 -829
-182 -177 4 -176 9 -28 -102 295 -222 566 -320 882 -320 244 0 453 64 691 212
122 76 409 171 596 198 110 16 323 14 436 -4 213 -35 419 -115 755 -295 259
-139 478 -249 591 -294 328 -134 646 -186 999 -166 77 4 151 8 164 8 33 1 17
15 -34 31 -22 7 -83 28 -135 47 -409 151 -793 352 -1299 682 -409 266 -447
287 -678 360 -186 60 -349 97 -513 116 -142 18 -457 17 -605 0z"/>
<path d="M9181 6088 c-117 -10 -311 -52 -433 -94 -413 -143 -956 -528 -1883
-1334 -367 -319 -478 -401 -672 -499 -126 -63 -232 -92 -357 -98 -97 -5 -118
-3 -184 18 -94 30 -126 61 -143 134 -10 46 -10 68 5 140 30 157 73 247 217
467 201 304 617 837 768 983 62 59 52 105 -21 105 -83 0 -200 -83 -412 -290
-371 -363 -773 -915 -1096 -1505 -80 -147 -247 -408 -289 -452 l-22 -23 -1399
0 -1400 0 0 -1740 0 -1740 33 0 c25 0 38 8 60 35 47 59 131 55 173 -10 13 -20
25 -25 60 -25 l44 0 0 93 c1 181 55 331 158 435 98 99 206 147 405 177 393 60
383 60 757 60 215 0 396 -5 460 -13 155 -17 599 -34 723 -26 l107 7 0 1198 0
1199 23 19 c12 10 65 54 117 97 52 42 144 126 204 186 60 59 112 108 115 108
4 0 25 -42 49 -92 l42 -93 0 -1682 0 -1683 33 0 c26 0 36 6 45 24 17 37 56 59
97 54 l35 -4 -1 51 c0 27 -4 72 -8 98 -4 26 -4 50 0 53 5 3 29 -14 54 -37 33
-30 61 -72 95 -142 44 -90 49 -97 60 -77 6 12 27 28 46 36 30 13 34 18 28 42
-14 58 -46 131 -85 196 -22 37 -39 70 -36 72 2 3 30 -5 62 -17 78 -29 167
-119 216 -216 20 -40 39 -70 42 -66 13 13 7 89 -13 161 -11 39 -20 77 -20 83
0 25 219 -21 342 -72 39 -16 73 -28 74 -26 14 14 -169 144 -309 221 -59 32
-107 62 -107 66 0 27 295 22 393 -7 169 -49 321 -178 419 -355 40 -72 45 -78
75 -78 21 0 44 -10 66 -30 32 -27 41 -30 105 -30 65 0 73 2 100 30 22 21 40
30 64 30 34 0 98 -32 98 -50 0 -6 28 -10 64 -10 52 0 68 4 78 18 18 25 51 42
83 42 32 0 81 -24 88 -45 10 -24 141 -21 159 3 36 51 110 57 158 12 28 -26 39
-30 92 -30 54 0 63 3 88 30 22 24 36 30 69 30 31 0 48 -7 74 -30 19 -16 40
-30 46 -30 8 0 11 466 11 1745 l0 1745 -970 0 c-533 0 -970 3 -970 8 1 4 24
25 53 47 79 61 270 229 397 351 63 60 227 217 365 349 678 650 995 906 1325
1071 199 100 443 164 621 164 72 0 228 -22 304 -43 28 -8 97 -36 155 -62 174
-81 249 -75 297 23 23 48 27 67 27 151 0 81 -4 104 -24 146 -90 184 -377 275
-769 243z m-3617 -3090 c163 -98 312 -262 377 -418 46 -108 62 -192 62 -325 1
-255 -84 -538 -236 -787 -38 -62 -69 -92 -52 -50 61 151 93 291 100 440 4 103
-7 154 -19 86 -17 -89 -112 -286 -143 -298 -11 -5 -12 5 -6 47 4 28 8 126 7
217 -1 182 -15 264 -62 360 l-26 55 -3 -45 c-13 -188 -53 -368 -97 -435 -20
-31 -32 -31 -48 -2 -19 33 -16 509 5 847 21 331 25 360 41 360 7 0 52 -23 100
-52z m-2009 -57 c22 -10 69 -42 105 -72 36 -30 117 -98 180 -151 261 -219 440
-401 486 -493 20 -42 23 -59 18 -99 -15 -107 -93 -145 -227 -111 -23 6 -34 1
-73 -35 -42 -38 -50 -42 -85 -37 -53 7 -84 29 -117 82 l-28 45 -30 -32 c-17
-18 -43 -50 -58 -71 -32 -44 -73 -67 -120 -67 -57 0 -87 17 -168 98 l-78 76
-27 -22 c-100 -79 -179 -126 -224 -130 -40 -4 -50 -1 -79 25 -38 34 -36 59 4
69 17 4 31 1 41 -10 9 -9 22 -16 29 -16 17 0 119 66 174 113 72 61 118 50 202
-45 57 -64 105 -92 144 -82 13 3 43 33 70 70 56 76 80 94 122 94 34 0 62 -26
96 -89 22 -40 62 -42 98 -4 14 14 40 32 59 40 29 13 39 12 81 -3 80 -29 120
-3 120 76 0 70 -203 277 -580 590 -74 61 -151 119 -170 127 -45 20 -112 12
-154 -18 -39 -28 -167 -168 -402 -440 -234 -271 -309 -382 -272 -405 7 -5 72
-9 143 -9 l130 0 3 -408 2 -408 -37 3 -38 3 -2 369 -2 369 -94 -2 c-137 -3
-187 23 -187 99 0 69 52 147 251 380 317 372 441 503 501 530 55 25 140 26
193 1z m3760 -127 c37 -40 35 -106 -4 -145 -16 -16 -37 -29 -46 -29 -9 0 -30
13 -46 29 -24 24 -29 38 -29 76 0 84 74 124 125 69z m-214 -153 c58 -59 28
-171 -46 -171 -74 0 -104 112 -46 171 16 16 37 29 46 29 9 0 30 -13 46 -29z
m350 -10 c56 -57 28 -171 -42 -171 -77 0 -109 111 -50 171 16 16 37 29 46 29
9 0 30 -13 46 -29z m-526 -46 c53 -52 19 -175 -49 -175 -35 0 -76 52 -76 96 0
90 70 135 125 79z m328 13 c35 -18 46 -40 47 -89 0 -75 -45 -115 -105 -93 -23
9 -45 57 -45 99 0 27 8 44 29 66 33 32 42 34 74 17z m-504 -122 c14 -15 25
-42 28 -68 4 -37 1 -49 -22 -76 -43 -52 -102 -36 -125 33 -30 92 59 175 119
111z m292 -26 c52 -28 62 -120 18 -166 -61 -65 -149 19 -119 112 18 53 59 76
101 54z m348 -26 c14 -18 21 -41 21 -69 0 -87 -81 -129 -130 -67 -29 36 -24
117 10 144 33 27 75 23 99 -8z m-154 -88 c43 -43 45 -98 4 -149 -56 -72 -150
14 -119 109 21 63 74 81 115 40z m-336 -12 c55 -70 -8 -202 -77 -165 -17 9
-19 7 -18 -19 1 -33 8 -37 26 -15 19 23 58 18 85 -11 53 -57 19 -174 -50 -174
-48 0 -82 57 -73 120 l5 30 -26 -24 c-14 -13 -46 -34 -71 -46 -249 -125 -683
-534 -1053 -992 -52 -64 -97 -114 -101 -111 -11 11 154 299 277 483 239 358
523 654 756 789 83 48 121 57 161 38 l30 -15 0 40 c0 87 81 133 129 72z m174
-92 c60 -67 31 -172 -49 -172 -28 0 -38 6 -54 33 -11 17 -20 45 -20 60 0 32
24 83 42 90 28 11 66 6 81 -11z m-382 -524 c41 -14 309 -184 416 -264 122 -91
232 -207 278 -294 38 -72 40 -79 40 -165 0 -114 -15 -144 -173 -355 -113 -150
-119 -155 -167 -169 -85 -23 -121 -8 -354 148 -113 76 -229 145 -256 154 -114
38 -301 41 -482 8 -52 -10 -59 2 -31 58 55 111 281 185 637 207 113 7 114 7
92 25 -85 69 -324 75 -540 12 -46 -13 -86 -21 -89 -19 -9 9 50 89 104 142 68
67 148 112 226 128 72 15 58 26 -33 26 -69 0 -170 -32 -267 -85 -35 -20 -67
-34 -70 -31 -13 14 154 221 249 310 163 151 302 205 420 164z m-3281 -193 l0
-155 -120 0 -120 0 0 155 0 155 120 0 120 0 0 -155z"/>
<path d="M3120 834 c-338 -38 -480 -67 -573 -117 -146 -77 -228 -217 -243
-415 l-7 -90 40 5 c43 6 100 -16 110 -43 8 -21 151 -20 160 1 8 22 56 45 92
45 19 0 43 -11 64 -30 31 -27 41 -30 102 -30 61 0 71 3 102 30 22 20 45 30 65
30 31 0 98 -34 98 -51 0 -5 37 -9 81 -9 76 0 84 2 116 30 22 20 44 30 66 30
32 0 75 -22 90 -47 12 -20 166 -18 174 2 8 22 56 45 92 45 19 0 43 -11 64 -30
30 -26 43 -30 90 -30 48 0 59 4 85 30 22 21 40 30 64 30 34 0 98 -32 98 -50 0
-6 29 -10 69 -10 64 0 72 2 99 30 42 42 98 42 145 0 30 -26 43 -30 92 -30 49
0 62 4 92 30 22 20 44 30 66 30 33 0 97 -32 97 -49 0 -5 7 -11 15 -15 13 -5
15 36 15 327 l0 332 -193 -3 c-173 -3 -366 5 -867 38 -219 15 -434 10 -660
-16z"/>
</g>
</svg>
